# xmcd
#
# Track frame offsets: 
#        150
#        16767
#        36872
#        56205
#        74140
#        93117
#        106620
#        124697
#        142322
#        161560
#        181845
#        198047
#        211545
#        230972
#        248970
#        266582
#
# Disc length: 3789 seconds
#
# Revision: 4
# Processed by: cddbd v1.5.2PL0 Copyright (c) Steve Scherf et al.
# Submitted via: ExactAudioCopy v1.0b3
#
DISCID=e00ecb10
DTITLE=Various Artist - Cabrio Classics - CD1
DYEAR=1992
DGENRE=blues
TTITLE0=The Steve Miller Band - Abracadabra
TTITLE1=Fleetwood Mac - Gypsy
TTITLE2=Poco - Call It Love
TTITLE3=Southside Johnny - On The Air Tonight
TTITLE4=Maggie Reilly - What About Tomorrows Children
TTITLE5=Ian Gomm - Hold On
TTITLE6=Frankie Miller - To Dream The Dream
TTITLE7=Little River Band - Lonesome Loser
TTITLE8=Marc Cohn - Walking In Memphis
TTITLE9=Christopher Cross - Ride Like The Wind
TTITLE10=Gordon Lightfood - Sundown
TTITLE11=Todd Rundgren - I Saw The Light
TTITLE12=Carly Simon - You're So Vain
TTITLE13=The Neville Brothers - Drift Away
TTITLE14=Crowded House - Don't Dream It's Over
TTITLE15=America - You Can Do Magic
EXTD=
EXTT0=
EXTT1=
EXTT2=
EXTT3=
EXTT4=
EXTT5=
EXTT6=
EXTT7=
EXTT8=
EXTT9=
EXTT10=
EXTT11=
EXTT12=
EXTT13=
EXTT14=
EXTT15=
PLAYORDER=
